# xmcd
# Track frame offsets:
# 150
# 3480
# 23497
# 43497
# 64712
# 83300
# 100315
# 115975
# 136180
# 140157
# 165347
# 190780
# 208007
# 226017
# 240247
#
# Disc length: 3441 seconds
# Revision: 4
# Processed by: cddbd v1.4PL0 Copyright (c) Steve Scherf et al.
# Submitted via: VisiTrax 2.9.6.190 - For more info visit www.synapsa.com
#
DISCID=b70d6f0f
DTITLE=Usher - 8701
DYEAR=1900
DGENRE=R&B
TTITLE0=Usher - Intro
TTITLE1=Usher - U Remind Me
TTITLE2=Usher - P. Diddy - I Don't Know
TTITLE3=Usher - Work it Out
TTITLE4=Usher - U Got it Bad
TTITLE5=Usher - If I Want to
TTITLE6=Usher - I Can't Let U Go
TTITLE7=Usher - U Don't Have To Call
TTITLE8=Usher - Without U
TTITLE9=Usher - Can U Help Me
TTITLE10=Usher - How Do I Say
TTITLE11=Usher - Hottest Thing
TTITLE12=Usher - Good Ol' Ghetto
TTITLE13=Usher - U Turn
TTITLE14=Usher - U R The One
EXTD=
EXTT0=
EXTT1=
EXTT2=
EXTT3=
EXTT4=
EXTT5=
EXTT6=
EXTT7=
EXTT8=
EXTT9=
EXTT10=
EXTT11=
EXTT12=
EXTT13=
EXTT14=
PLAYORDER=
